<?xml version="1.0" encoding="UTF-8"?>
<svg xmlns="http://www.w3.org/2000/svg" viewBox="0 0 24 24" width="24" height="24">
  <defs>
    <linearGradient id="gradient" x1="0%" y1="0%" x2="100%" y2="100%">
      <stop offset="0%" stop-color="#3b82f6" />
      <stop offset="100%" stop-color="#2563eb" />
    </linearGradient>
  </defs>
  <path d="M15 4c-4.42 0-8 3.58-8 8s3.58 8 8 8 8-3.58 8-8-3.58-8-8-8zm0 14c-3.31 0-6-2.69-6-6s2.69-6 6-6 6 2.69 6 6-2.69 6-6 6zM3 12c0-2.61 1.67-4.83 4-5.65V4.26C3.55 5.15 1 8.27 1 12c0 3.73 2.55 6.85 6 7.74v-2.09c-2.33-.82-4-3.04-4-5.65z" fill="url(#gradient)"/>
</svg> 